<svg xmlns="http://www.w3.org/2000/svg" fill="#ed2c1d" viewBox="0 0 134.68 39.59"><defs><style>.cls-1{isolation:isolate;}</style></defs><title>salon-logo</title><g id="politics" class="cls-1"><path d="M11.56,114.66c0,2.34,2.2,2.92,6.89,4.48C25.12,121.33,28,123.73,28,129s-4.72,8.86-11.28,8.86c-3.59,0-6.57-1-8.55-1a4.07,4.07,0,0,0-2.71,1.09l-0.57-9.43H5c3.07,5.63,7.2,8.49,11.73,8.49,2.45,0,4.33-1.09,4.33-3.39,0-2.55-2.17-3.12-5.92-4.37-6.51-2.08-10.21-4.75-10.21-10,0-4.95,5.17-8.33,10.64-8.33,3.28,0,5.37,1.2,7.24,1.2a4.49,4.49,0,0,0,3-1.25v8.39h-0.1c-2.4-4.53-6.56-7.45-10.16-7.45C13.45,111.8,11.56,112.84,11.56,114.66Z" transform="translate(-4.91 -98.31)"/><path d="M60.48,135.4a9.73,9.73,0,0,1-6.67,2.45c-4.58,0-6.77-1.82-7.29-4.69a8.62,8.62,0,0,1-.1-1.09c-0.94,3.49-3.91,5.63-8.33,5.63-4.06,0-7.76-2.08-7.76-6.56,0-7.12,7.48-7,11-8,6.31-1.67,5.6-6.47,5.6-6.47,0-2.19-1.48-4.84-4.13-4.84-2.14,0-3.39,1.67-3.39,3.85,0,4.15,3.39,3.33,3.88,3.21a7.93,7.93,0,0,1-6.51,3.77c-2.86,0-5.56-1.79-5.56-4.3,0-5,5.06-7.47,11.83-7.47,9,0,13.49,2.6,13.49,9.17,0,2.86-.1,6-0.1,9.84,0,3.54.26,5.47,2.92,5.47a4.09,4.09,0,0,0,1.09-.1v0.1Zm-16.1-11.77c-2.92.63-4.06,2.66-4.06,5.94,0,2.5.83,4.27,2.71,4.27,2.24,0,3.18-2.34,3.23-4.9v-5.78Z" transform="translate(-4.91 -98.31)"/><path d="M72.88,131.64c0,3.44.1,4,2.29,5.57v0.1h-15v-0.1c2.19-1.56,2.29-2.14,2.29-5.57V104.09c0-3.59-.62-4.43-3.07-5.68v-0.1H72.88v33.34Z" transform="translate(-4.91 -98.31)"/><path d="M76.39,124.35c0-8.23,6.72-13.44,14.69-13.44s14.69,5.21,14.69,13.44S99,137.84,91.08,137.84,76.39,132.58,76.39,124.35Zm18.39,0c0-8.49-.83-12.55-3.7-12.55s-3.7,4.06-3.7,12.55S88.21,137,91.08,137,94.77,132.89,94.77,124.35Z" transform="translate(-4.91 -98.31)"/><path d="M120,111.43v6.67c1.25-4.64,4.58-7.19,9-7.19,5.83,0,8.28,4.17,8.28,9v11.72c0,3.44.1,4,2.29,5.57v0.1h-15v-0.1c2.19-1.56,2.29-2.14,2.29-5.57V119.46c0-2.08-1-3.7-3.07-3.7-2.24,0-3.8,1.77-3.8,6.2v9.69c0,3.44.1,4,2.29,5.57v0.1h-15v-0.1c2.19-1.56,2.29-2.14,2.29-5.57V117.22c0-3.65-.26-4.17-2.66-5.68v-0.1H120Z" transform="translate(-4.91 -98.31)"/></g></svg>
